<?xml version="1.0" encoding="UTF-8"?>
<svg xmlns="http://www.w3.org/2000/svg" xmlns:xlink="http://www.w3.org/1999/xlink" width="768pt" height="767.999994pt" viewBox="0 0 768 767.999994" version="1.2">
<defs>
<clipPath id="clip1">
  <path d="M 111.765625 111.765625 L 653 111.765625 L 653 653 L 111.765625 653 Z M 111.765625 111.765625 "/>
</clipPath>
</defs>
<g id="surface1">
<path style=" stroke:none;fill-rule:nonzero;fill:rgb(92.158508%,89.7995%,86.669922%);fill-opacity:1;" d="M 490.417969 571.554688 L 490.417969 643.679688 L 156.84375 643.679688 C 155.664062 643.679688 154.484375 643.621094 153.308594 643.507812 C 152.132812 643.390625 150.96875 643.21875 149.808594 642.988281 C 148.652344 642.757812 147.507812 642.46875 146.375 642.128906 C 145.246094 641.785156 144.136719 641.386719 143.042969 640.933594 C 141.953125 640.484375 140.886719 639.980469 139.84375 639.421875 C 138.804688 638.867188 137.792969 638.257812 136.808594 637.601562 C 135.828125 636.945312 134.878906 636.242188 133.96875 635.496094 C 133.054688 634.746094 132.179688 633.953125 131.34375 633.117188 C 130.507812 632.28125 129.71875 631.410156 128.96875 630.496094 C 128.21875 629.582031 127.515625 628.636719 126.859375 627.652344 C 126.203125 626.671875 125.597656 625.660156 125.039062 624.617188 C 124.484375 623.578125 123.980469 622.511719 123.527344 621.417969 C 123.074219 620.328125 122.679688 619.21875 122.335938 618.085938 C 121.992188 616.957031 121.707031 615.8125 121.476562 614.652344 C 121.246094 613.496094 121.070312 612.328125 120.957031 611.152344 C 120.839844 609.976562 120.78125 608.800781 120.78125 607.617188 C 120.78125 606.4375 120.839844 605.257812 120.957031 604.082031 C 121.070312 602.910156 121.246094 601.742188 121.476562 600.582031 C 121.707031 599.425781 121.992188 598.28125 122.335938 597.148438 C 122.679688 596.019531 123.074219 594.910156 123.527344 593.816406 C 123.980469 592.726562 124.484375 591.660156 125.039062 590.617188 C 125.597656 589.578125 126.203125 588.566406 126.859375 587.582031 C 127.515625 586.601562 128.21875 585.652344 128.96875 584.742188 C 129.71875 583.828125 130.507812 582.953125 131.34375 582.117188 C 132.179688 581.285156 133.054688 580.492188 133.96875 579.742188 C 134.878906 578.992188 135.828125 578.289062 136.808594 577.632812 C 137.792969 576.976562 138.804688 576.371094 139.84375 575.816406 C 140.886719 575.257812 141.953125 574.753906 143.042969 574.300781 C 144.136719 573.847656 145.246094 573.453125 146.375 573.109375 C 147.507812 572.765625 148.652344 572.480469 149.808594 572.25 C 150.96875 572.019531 152.132812 571.847656 153.308594 571.730469 C 154.484375 571.613281 155.664062 571.554688 156.84375 571.554688 Z M 490.417969 571.554688 "/>
<path style=" stroke:none;fill-rule:nonzero;fill:rgb(85.099792%,79.998779%,73.728943%);fill-opacity:1;" d="M 454.355469 571.554688 L 490.417969 571.554688 L 490.417969 643.679688 L 454.355469 643.679688 Z M 454.355469 571.554688 "/>
<path style=" stroke:none;fill-rule:nonzero;fill:rgb(75.289917%,67.059326%,56.858826%);fill-opacity:1;" d="M 174.875 120.78125 L 481.402344 120.78125 C 481.992188 120.78125 482.582031 120.8125 483.167969 120.871094 C 483.757812 120.925781 484.339844 121.011719 484.917969 121.128906 C 485.5 121.242188 486.070312 121.386719 486.636719 121.558594 C 487.199219 121.730469 487.757812 121.929688 488.300781 122.15625 C 488.847656 122.382812 489.378906 122.632812 489.902344 122.910156 C 490.421875 123.191406 490.929688 123.492188 491.417969 123.820312 C 491.910156 124.148438 492.382812 124.5 492.839844 124.875 C 493.296875 125.25 493.734375 125.644531 494.152344 126.0625 C 494.570312 126.480469 494.964844 126.917969 495.339844 127.375 C 495.714844 127.832031 496.066406 128.304688 496.394531 128.796875 C 496.722656 129.285156 497.023438 129.792969 497.304688 130.3125 C 497.582031 130.835938 497.835938 131.367188 498.058594 131.914062 C 498.285156 132.457031 498.484375 133.015625 498.65625 133.578125 C 498.828125 134.144531 498.972656 134.714844 499.085938 135.296875 C 499.203125 135.875 499.289062 136.457031 499.347656 137.046875 C 499.402344 137.632812 499.433594 138.222656 499.433594 138.8125 L 499.433594 571.554688 L 174.875 571.554688 Z M 174.875 120.78125 "/>
<path style=" stroke:none;fill-rule:nonzero;fill:rgb(70.199585%,60.389709%,48.629761%);fill-opacity:1;" d="M 499.433594 138.8125 L 499.433594 571.554688 L 463.371094 571.554688 L 463.371094 138.8125 C 463.367188 138.222656 463.339844 137.632812 463.277344 137.046875 C 463.21875 136.460938 463.132812 135.878906 463.015625 135.300781 C 462.898438 134.722656 462.753906 134.148438 462.582031 133.585938 C 462.410156 133.019531 462.210938 132.464844 461.984375 131.921875 C 461.757812 131.375 461.503906 130.84375 461.226562 130.324219 C 460.945312 129.804688 460.644531 129.300781 460.316406 128.808594 C 459.988281 128.316406 459.636719 127.84375 459.261719 127.390625 C 458.886719 126.933594 458.492188 126.496094 458.074219 126.078125 C 457.65625 125.660156 457.21875 125.265625 456.765625 124.890625 C 456.308594 124.515625 455.835938 124.164062 455.34375 123.835938 C 454.855469 123.507812 454.347656 123.207031 453.828125 122.925781 C 453.308594 122.648438 452.777344 122.394531 452.230469 122.167969 C 451.6875 121.941406 451.132812 121.742188 450.566406 121.570312 C 450.003906 121.398438 449.433594 121.253906 448.855469 121.136719 C 448.273438 121.019531 447.691406 120.933594 447.105469 120.875 C 446.519531 120.816406 445.929688 120.785156 445.339844 120.78125 L 481.402344 120.78125 C 481.992188 120.785156 482.582031 120.816406 483.167969 120.875 C 483.753906 120.933594 484.335938 121.019531 484.914062 121.136719 C 485.492188 121.253906 486.066406 121.398438 486.628906 121.570312 C 487.195312 121.742188 487.75 121.941406 488.292969 122.167969 C 488.839844 122.394531 489.371094 122.648438 489.890625 122.925781 C 490.410156 123.207031 490.917969 123.507812 491.40625 123.835938 C 491.898438 124.164062 492.371094 124.515625 492.824219 124.890625 C 493.28125 125.265625 493.71875 125.660156 494.136719 126.078125 C 494.554688 126.496094 494.949219 126.933594 495.324219 127.390625 C 495.699219 127.84375 496.050781 128.316406 496.378906 128.808594 C 496.707031 129.300781 497.007812 129.804688 497.289062 130.324219 C 497.566406 130.84375 497.820312 131.375 498.046875 131.921875 C 498.273438 132.464844 498.472656 133.019531 498.644531 133.585938 C 498.816406 134.148438 498.960938 134.722656 499.078125 135.300781 C 499.195312 135.878906 499.28125 136.460938 499.339844 137.046875 C 499.398438 137.632812 499.429688 138.222656 499.433594 138.8125 Z M 499.433594 138.8125 "/>
<path style=" stroke:none;fill-rule:nonzero;fill:rgb(100%,89.408875%,46.669006%);fill-opacity:1;" d="M 643.679688 490.417969 C 643.679688 492.925781 643.617188 495.433594 643.496094 497.9375 C 643.371094 500.441406 643.1875 502.945312 642.941406 505.441406 C 642.695312 507.9375 642.390625 510.425781 642.019531 512.90625 C 641.652344 515.386719 641.226562 517.855469 640.734375 520.316406 C 640.246094 522.777344 639.695312 525.222656 639.085938 527.65625 C 638.476562 530.089844 637.808594 532.507812 637.082031 534.90625 C 636.351562 537.308594 635.566406 539.6875 634.722656 542.050781 C 633.875 544.410156 632.972656 546.75 632.015625 549.070312 C 631.054688 551.386719 630.039062 553.679688 628.964844 555.945312 C 627.894531 558.214844 626.765625 560.453125 625.582031 562.664062 C 624.402344 564.878906 623.164062 567.058594 621.875 569.210938 C 620.585938 571.363281 619.246094 573.480469 617.851562 575.566406 C 616.457031 577.652344 615.011719 579.703125 613.519531 581.714844 C 612.023438 583.730469 610.484375 585.707031 608.890625 587.644531 C 607.300781 589.585938 605.664062 591.484375 603.976562 593.34375 C 602.292969 595.199219 600.5625 597.015625 598.789062 598.789062 C 597.015625 600.5625 595.199219 602.292969 593.34375 603.976562 C 591.484375 605.664062 589.585938 607.300781 587.644531 608.890625 C 585.707031 610.484375 583.730469 612.023438 581.714844 613.519531 C 579.703125 615.011719 577.652344 616.457031 575.566406 617.851562 C 573.480469 619.246094 571.363281 620.585938 569.210938 621.875 C 567.058594 623.164062 564.878906 624.402344 562.664062 625.582031 C 560.453125 626.765625 558.214844 627.894531 555.945312 628.964844 C 553.679688 630.039062 551.386719 631.054688 549.070312 632.015625 C 546.75 632.972656 544.410156 633.875 542.050781 634.722656 C 539.6875 635.566406 537.308594 636.351562 534.90625 637.082031 C 532.507812 637.808594 530.089844 638.476562 527.65625 639.085938 C 525.222656 639.695312 522.777344 640.246094 520.316406 640.734375 C 517.855469 641.226562 515.386719 641.652344 512.90625 642.023438 C 510.425781 642.390625 507.9375 642.695312 505.441406 642.941406 C 502.945312 643.1875 500.441406 643.371094 497.9375 643.496094 C 495.433594 643.617188 492.925781 643.679688 490.417969 643.679688 C 487.910156 643.679688 485.402344 643.617188 482.898438 643.496094 C 480.390625 643.371094 477.890625 643.1875 475.394531 642.941406 C 472.898438 642.695312 470.410156 642.390625 467.929688 642.023438 C 465.449219 641.652344 462.976562 641.226562 460.515625 640.734375 C 458.058594 640.246094 455.609375 639.695312 453.175781 639.085938 C 450.742188 638.476562 448.328125 637.808594 445.925781 637.082031 C 443.527344 636.351562 441.144531 635.566406 438.785156 634.722656 C 436.421875 633.875 434.082031 632.972656 431.765625 632.015625 C 429.449219 631.054688 427.15625 630.039062 424.886719 628.964844 C 422.621094 627.894531 420.382812 626.765625 418.167969 625.582031 C 415.957031 624.402344 413.777344 623.164062 411.625 621.875 C 409.472656 620.585938 407.355469 619.246094 405.269531 617.851562 C 403.183594 616.457031 401.132812 615.011719 399.117188 613.519531 C 397.105469 612.023438 395.125 610.484375 393.1875 608.890625 C 391.25 607.300781 389.351562 605.664062 387.492188 603.976562 C 385.632812 602.292969 383.816406 600.5625 382.042969 598.789062 C 380.269531 597.015625 378.542969 595.199219 376.855469 593.34375 C 375.171875 591.484375 373.535156 589.585938 371.941406 587.644531 C 370.351562 585.707031 368.808594 583.730469 367.316406 581.714844 C 365.820312 579.703125 364.375 577.652344 362.984375 575.566406 C 361.589844 573.480469 360.25 571.363281 358.957031 569.210938 C 357.667969 567.058594 356.433594 564.878906 355.25 562.664062 C 354.070312 560.453125 352.941406 558.214844 351.867188 555.945312 C 350.796875 553.679688 349.78125 551.386719 348.820312 549.070312 C 347.859375 546.75 346.957031 544.410156 346.113281 542.050781 C 345.269531 539.6875 344.480469 537.308594 343.753906 534.90625 C 343.023438 532.507812 342.355469 530.089844 341.746094 527.65625 C 341.136719 525.222656 340.589844 522.777344 340.097656 520.316406 C 339.609375 517.855469 339.179688 515.386719 338.8125 512.90625 C 338.445312 510.425781 338.136719 507.9375 337.890625 505.441406 C 337.644531 502.945312 337.460938 500.441406 337.339844 497.9375 C 337.214844 495.433594 337.152344 492.925781 337.152344 490.417969 C 337.152344 487.910156 337.214844 485.402344 337.339844 482.898438 C 337.460938 480.390625 337.644531 477.890625 337.890625 475.394531 C 338.136719 472.898438 338.445312 470.410156 338.8125 467.929688 C 339.179688 465.449219 339.609375 462.976562 340.097656 460.515625 C 340.589844 458.058594 341.136719 455.609375 341.746094 453.175781 C 342.355469 450.742188 343.023438 448.328125 343.753906 445.925781 C 344.480469 443.527344 345.269531 441.144531 346.113281 438.785156 C 346.957031 436.421875 347.859375 434.082031 348.820312 431.765625 C 349.78125 429.449219 350.796875 427.15625 351.867188 424.886719 C 352.941406 422.621094 354.070312 420.382812 355.25 418.167969 C 356.433594 415.957031 357.667969 413.777344 358.957031 411.625 C 360.25 409.472656 361.589844 407.355469 362.984375 405.269531 C 364.375 403.183594 365.820312 401.132812 367.316406 399.117188 C 368.808594 397.105469 370.351562 395.125 371.941406 393.1875 C 373.535156 391.25 375.171875 389.351562 376.855469 387.492188 C 378.542969 385.632812 380.269531 383.816406 382.042969 382.042969 C 383.816406 380.269531 385.632812 378.542969 387.492188 376.855469 C 389.351562 375.171875 391.25 373.535156 393.1875 371.941406 C 395.125 370.351562 397.105469 368.808594 399.117188 367.316406 C 401.132812 365.820312 403.183594 364.378906 405.269531 362.984375 C 407.355469 361.589844 409.472656 360.25 411.625 358.957031 C 413.777344 357.667969 415.957031 356.433594 418.167969 355.25 C 420.382812 354.070312 422.621094 352.941406 424.886719 351.867188 C 427.15625 350.796875 429.449219 349.78125 431.765625 348.820312 C 434.082031 347.859375 436.421875 346.957031 438.785156 346.113281 C 441.144531 345.269531 443.527344 344.480469 445.925781 343.753906 C 448.328125 343.023438 450.742188 342.355469 453.175781 341.746094 C 455.609375 341.136719 458.058594 340.589844 460.515625 340.097656 C 462.976562 339.609375 465.449219 339.179688 467.929688 338.8125 C 470.410156 338.445312 472.898438 338.136719 475.394531 337.890625 C 477.890625 337.644531 480.390625 337.460938 482.898438 337.339844 C 485.402344 337.214844 487.910156 337.152344 490.417969 337.152344 C 492.925781 337.152344 495.433594 337.214844 497.9375 337.339844 C 500.441406 337.460938 502.945312 337.644531 505.441406 337.890625 C 507.9375 338.136719 510.425781 338.445312 512.90625 338.8125 C 515.386719 339.179688 517.855469 339.609375 520.316406 340.097656 C 522.777344 340.589844 525.222656 341.136719 527.65625 341.746094 C 530.089844 342.355469 532.507812 343.023438 534.90625 343.753906 C 537.308594 344.480469 539.6875 345.269531 542.050781 346.113281 C 544.410156 346.957031 546.75 347.859375 549.070312 348.820312 C 551.386719 349.78125 553.679688 350.796875 555.945312 351.867188 C 558.214844 352.941406 560.453125 354.070312 562.664062 355.25 C 564.878906 356.433594 567.058594 357.667969 569.210938 358.957031 C 571.363281 360.25 573.480469 361.589844 575.566406 362.984375 C 577.652344 364.378906 579.703125 365.820312 581.714844 367.316406 C 583.730469 368.808594 585.707031 370.351562 587.644531 371.941406 C 589.585938 373.535156 591.484375 375.171875 593.34375 376.855469 C 595.199219 378.542969 597.015625 380.269531 598.789062 382.042969 C 600.5625 383.816406 602.292969 385.632812 603.976562 387.492188 C 605.664062 389.351562 607.300781 391.25 608.890625 393.1875 C 610.484375 395.125 612.023438 397.105469 613.519531 399.117188 C 615.011719 401.132812 616.457031 403.183594 617.851562 405.269531 C 619.246094 407.355469 620.585938 409.472656 621.875 411.625 C 623.164062 413.777344 624.402344 415.957031 625.582031 418.167969 C 626.765625 420.382812 627.894531 422.621094 628.964844 424.886719 C 630.039062 427.15625 631.054688 429.449219 632.015625 431.765625 C 632.972656 434.082031 633.875 436.421875 634.722656 438.785156 C 635.566406 441.144531 636.351562 443.527344 637.082031 445.925781 C 637.808594 448.328125 638.476562 450.742188 639.085938 453.175781 C 639.695312 455.609375 640.246094 458.058594 640.734375 460.515625 C 641.226562 462.976562 641.652344 465.449219 642.019531 467.929688 C 642.390625 470.410156 642.695312 472.898438 642.941406 475.394531 C 643.1875 477.890625 643.371094 480.390625 643.496094 482.898438 C 643.617188 485.402344 643.679688 487.910156 643.679688 490.417969 Z M 643.679688 490.417969 "/>
<path style=" stroke:none;fill-rule:nonzero;fill:rgb(100%,80.389404%,0%);fill-opacity:1;" d="M 643.679688 490.417969 C 643.679688 494.445312 643.519531 498.46875 643.199219 502.484375 C 642.878906 506.503906 642.402344 510.5 641.769531 514.480469 C 641.132812 518.457031 640.34375 522.40625 639.398438 526.324219 C 638.453125 530.238281 637.351562 534.113281 636.101562 537.945312 C 634.851562 541.773438 633.449219 545.546875 631.902344 549.269531 C 630.351562 552.988281 628.660156 556.640625 626.820312 560.226562 C 624.984375 563.8125 623.007812 567.320312 620.894531 570.75 C 618.78125 574.183594 616.535156 577.523438 614.160156 580.777344 C 611.78125 584.03125 609.277344 587.183594 606.652344 590.242188 C 604.027344 593.296875 601.285156 596.242188 598.425781 599.082031 C 595.566406 601.921875 592.601562 604.644531 589.527344 607.25 C 586.453125 609.855469 583.28125 612.335938 580.011719 614.691406 C 576.746094 617.046875 573.386719 619.273438 569.941406 621.363281 C 566.5 623.453125 562.976562 625.40625 559.378906 627.21875 C 555.78125 629.03125 552.117188 630.699219 548.386719 632.222656 C 544.65625 633.746094 540.871094 635.121094 537.035156 636.347656 C 533.195312 637.574219 529.316406 638.644531 525.390625 639.566406 C 521.46875 640.484375 517.515625 641.25 513.53125 641.855469 C 509.550781 642.464844 505.546875 642.914062 501.527344 643.207031 C 497.511719 643.5 493.488281 643.632812 489.457031 643.605469 C 485.429688 643.582031 481.40625 643.398438 477.390625 643.054688 C 473.375 642.710938 469.382812 642.210938 465.40625 641.554688 C 461.429688 640.898438 457.488281 640.085938 453.578125 639.117188 C 449.664062 638.148438 445.796875 637.027344 441.976562 635.753906 C 438.152344 634.480469 434.386719 633.058594 430.675781 631.488281 C 426.964844 629.914062 423.320312 628.203125 419.746094 626.34375 C 416.171875 624.484375 412.675781 622.488281 409.257812 620.355469 C 405.839844 618.222656 402.507812 615.957031 399.269531 613.5625 C 396.03125 611.164062 392.890625 608.644531 389.851562 606 C 386.808594 603.355469 383.878906 600.597656 381.054688 597.722656 C 378.230469 594.847656 375.527344 591.863281 372.9375 588.777344 C 370.351562 585.6875 367.890625 582.503906 365.550781 579.21875 C 371.984375 583.832031 378.734375 587.914062 385.804688 591.46875 C 392.875 595.023438 400.179688 598.007812 407.714844 600.417969 C 415.253906 602.828125 422.933594 604.636719 430.753906 605.84375 C 438.574219 607.050781 446.441406 607.644531 454.355469 607.617188 C 456.863281 607.617188 459.371094 607.558594 461.875 607.433594 C 464.378906 607.3125 466.882812 607.125 469.378906 606.878906 C 471.875 606.632812 474.363281 606.328125 476.84375 605.960938 C 479.324219 605.589844 481.796875 605.164062 484.253906 604.671875 C 486.714844 604.183594 489.160156 603.632812 491.59375 603.023438 C 494.027344 602.414062 496.445312 601.746094 498.84375 601.019531 C 501.246094 600.289062 503.625 599.503906 505.988281 598.660156 C 508.351562 597.8125 510.6875 596.910156 513.007812 595.953125 C 515.324219 594.992188 517.617188 593.976562 519.882812 592.902344 C 522.152344 591.832031 524.390625 590.703125 526.601562 589.519531 C 528.816406 588.339844 530.996094 587.101562 533.148438 585.8125 C 535.300781 584.523438 537.417969 583.183594 539.503906 581.789062 C 541.589844 580.394531 543.640625 578.953125 545.652344 577.457031 C 547.667969 575.964844 549.644531 574.421875 551.585938 572.828125 C 553.523438 571.238281 555.421875 569.601562 557.28125 567.914062 C 559.140625 566.230469 560.953125 564.503906 562.730469 562.730469 C 564.503906 560.953125 566.230469 559.140625 567.914062 557.28125 C 569.601562 555.421875 571.238281 553.523438 572.828125 551.585938 C 574.421875 549.644531 575.964844 547.667969 577.457031 545.652344 C 578.953125 543.640625 580.394531 541.589844 581.789062 539.503906 C 583.183594 537.417969 584.523438 535.300781 585.8125 533.148438 C 587.101562 530.996094 588.339844 528.816406 589.519531 526.601562 C 590.703125 524.390625 591.832031 522.152344 592.902344 519.882812 C 593.976562 517.617188 594.992188 515.324219 595.953125 513.007812 C 596.910156 510.6875 597.8125 508.351562 598.660156 505.988281 C 599.503906 503.625 600.289062 501.246094 601.019531 498.84375 C 601.746094 496.445312 602.414062 494.027344 603.023438 491.59375 C 603.632812 489.160156 604.183594 486.714844 604.671875 484.253906 C 605.164062 481.796875 605.589844 479.324219 605.960938 476.84375 C 606.328125 474.363281 606.632812 471.875 606.878906 469.378906 C 607.125 466.882812 607.3125 464.378906 607.433594 461.875 C 607.558594 459.371094 607.617188 456.863281 607.617188 454.355469 C 607.644531 446.441406 607.050781 438.574219 605.84375 430.753906 C 604.636719 422.933594 602.828125 415.253906 600.417969 407.714844 C 598.007812 400.179688 595.023438 392.875 591.46875 385.804688 C 587.914062 378.734375 583.832031 371.984375 579.21875 365.554688 C 581.703125 367.3125 584.128906 369.144531 586.503906 371.046875 C 588.875 372.953125 591.191406 374.925781 593.445312 376.96875 C 595.699219 379.011719 597.894531 381.121094 600.023438 383.292969 C 602.152344 385.46875 604.214844 387.703125 606.210938 390 C 608.207031 392.296875 610.132812 394.652344 611.988281 397.0625 C 613.839844 399.472656 615.625 401.941406 617.332031 404.457031 C 619.039062 406.976562 620.671875 409.542969 622.226562 412.160156 C 623.78125 414.773438 625.253906 417.433594 626.652344 420.136719 C 628.046875 422.839844 629.359375 425.585938 630.59375 428.367188 C 631.824219 431.148438 632.972656 433.964844 634.035156 436.816406 C 635.101562 439.667969 636.078125 442.546875 636.96875 445.457031 C 637.859375 448.367188 638.664062 451.296875 639.382812 454.253906 C 640.097656 457.214844 640.726562 460.1875 641.265625 463.183594 C 641.804688 466.179688 642.253906 469.1875 642.613281 472.207031 C 642.972656 475.230469 643.238281 478.257812 643.417969 481.296875 C 643.597656 484.335938 643.683594 487.375 643.679688 490.417969 Z M 643.679688 490.417969 "/>
<path style=" stroke:none;fill-rule:nonzero;fill:rgb(0%,58.81958%,59.609985%);fill-opacity:1;" d="M 580.390625 454.625 L 611.132812 505.203125 L 559.835938 589.585938 L 508.449219 589.585938 L 508.449219 603.109375 L 490.417969 562.542969 L 508.449219 521.972656 L 508.449219 535.496094 L 566.238281 535.496094 L 535.855469 485.457031 L 559.113281 469.320312 Z M 580.390625 454.625 "/>
<path style=" stroke:none;fill-rule:nonzero;fill:rgb(0%,58.81958%,59.609985%);fill-opacity:1;" d="M 568.851562 414.957031 L 547.304688 452.28125 L 505.113281 461.207031 L 514.667969 454.355469 L 490.417969 414.417969 L 464.632812 456.878906 L 443.355469 442.183594 L 421.359375 426.949219 L 448.496094 382.230469 L 532.339844 382.230469 L 557.3125 423.34375 Z M 568.851562 414.957031 "/>
<path style=" stroke:none;fill-rule:nonzero;fill:rgb(0%,58.81958%,59.609985%);fill-opacity:1;" d="M 472.386719 562.542969 L 472.386719 589.585938 L 420.996094 589.585938 L 369.699219 505.203125 L 398.640625 457.691406 L 388.273438 450.386719 L 431.816406 458.863281 L 454.714844 496.910156 L 442.996094 488.703125 L 414.597656 535.496094 L 472.386719 535.496094 Z M 472.386719 562.542969 "/>
<path style=" stroke:none;fill-rule:nonzero;fill:rgb(100%,89.408875%,46.669006%);fill-opacity:1;" d="M 210.9375 156.84375 L 463.371094 156.84375 L 463.371094 283.0625 L 210.9375 283.0625 Z M 210.9375 156.84375 "/>
<path style=" stroke:none;fill-rule:nonzero;fill:rgb(100%,80.389404%,0%);fill-opacity:1;" d="M 427.308594 156.84375 L 463.371094 156.84375 L 463.371094 283.0625 L 427.308594 283.0625 Z M 427.308594 156.84375 "/>
<path style=" stroke:none;fill-rule:nonzero;fill:rgb(65.489197%,53.729248%,39.99939%);fill-opacity:1;" d="M 174.875 120.78125 L 174.875 571.554688 L 156.84375 571.554688 C 155.664062 571.554688 154.484375 571.613281 153.308594 571.730469 C 152.132812 571.847656 150.96875 572.019531 149.808594 572.25 C 148.652344 572.480469 147.507812 572.765625 146.375 573.109375 C 145.246094 573.453125 144.136719 573.851562 143.042969 574.300781 C 141.953125 574.753906 140.886719 575.257812 139.84375 575.816406 C 138.804688 576.371094 137.792969 576.976562 136.808594 577.632812 C 135.828125 578.289062 134.878906 578.992188 133.96875 579.742188 C 133.054688 580.492188 132.179688 581.285156 131.34375 582.117188 C 130.507812 582.953125 129.71875 583.828125 128.96875 584.742188 C 128.21875 585.652344 127.515625 586.601562 126.859375 587.582031 C 126.203125 588.566406 125.597656 589.578125 125.039062 590.617188 C 124.484375 591.660156 123.980469 592.726562 123.527344 593.816406 C 123.074219 594.910156 122.679688 596.019531 122.335938 597.148438 C 121.992188 598.28125 121.707031 599.425781 121.476562 600.582031 C 121.246094 601.742188 121.070312 602.910156 120.957031 604.082031 C 120.839844 605.257812 120.78125 606.4375 120.78125 607.617188 L 120.78125 156.84375 C 120.78125 155.664062 120.839844 154.484375 120.957031 153.308594 C 121.070312 152.132812 121.246094 150.96875 121.476562 149.808594 C 121.707031 148.652344 121.992188 147.507812 122.335938 146.375 C 122.679688 145.246094 123.074219 144.136719 123.527344 143.042969 C 123.980469 141.953125 124.484375 140.886719 125.039062 139.84375 C 125.597656 138.804688 126.203125 137.792969 126.859375 136.808594 C 127.515625 135.828125 128.21875 134.878906 128.96875 133.96875 C 129.71875 133.054688 130.507812 132.179688 131.34375 131.34375 C 132.179688 130.507812 133.054688 129.71875 133.96875 128.96875 C 134.878906 128.21875 135.828125 127.515625 136.808594 126.859375 C 137.792969 126.203125 138.804688 125.597656 139.84375 125.039062 C 140.886719 124.484375 141.953125 123.980469 143.042969 123.527344 C 144.136719 123.074219 145.246094 122.679688 146.375 122.335938 C 147.507812 121.992188 148.652344 121.707031 149.808594 121.476562 C 150.96875 121.246094 152.132812 121.070312 153.308594 120.957031 C 154.484375 120.839844 155.664062 120.78125 156.84375 120.78125 Z M 174.875 120.78125 "/>
<path style=" stroke:none;fill-rule:nonzero;fill:rgb(0%,0%,0%);fill-opacity:1;" d="M 618.832031 500.558594 L 588.046875 449.945312 C 587.726562 449.421875 587.355469 448.9375 586.9375 448.488281 C 586.515625 448.039062 586.054688 447.636719 585.554688 447.28125 C 585.050781 446.929688 584.519531 446.628906 583.957031 446.382812 C 583.394531 446.136719 582.8125 445.949219 582.210938 445.824219 C 581.609375 445.699219 581 445.632812 580.386719 445.628906 C 579.773438 445.628906 579.164062 445.6875 578.5625 445.808594 C 577.960938 445.933594 577.378906 446.113281 576.8125 446.355469 C 576.246094 446.59375 575.710938 446.890625 575.207031 447.242188 L 530.679688 478.074219 C 530.210938 478.398438 529.777344 478.765625 529.378906 479.171875 C 528.980469 479.578125 528.621094 480.019531 528.308594 480.492188 C 527.992188 480.964844 527.722656 481.464844 527.503906 481.992188 C 527.28125 482.515625 527.113281 483.058594 526.992188 483.613281 C 526.875 484.171875 526.808594 484.734375 526.800781 485.304688 C 526.789062 485.875 526.828125 486.4375 526.925781 487 C 527.019531 487.5625 527.167969 488.109375 527.367188 488.644531 C 527.566406 489.175781 527.816406 489.6875 528.109375 490.171875 L 550.207031 526.480469 L 517.464844 526.480469 L 517.464844 521.972656 C 517.464844 521.457031 517.421875 520.949219 517.332031 520.445312 C 517.246094 519.9375 517.117188 519.445312 516.945312 518.960938 C 516.777344 518.476562 516.566406 518.011719 516.3125 517.5625 C 516.0625 517.117188 515.777344 516.691406 515.453125 516.292969 C 515.132812 515.894531 514.777344 515.527344 514.390625 515.191406 C 514.003906 514.851562 513.59375 514.546875 513.15625 514.28125 C 512.71875 514.011719 512.261719 513.785156 511.785156 513.59375 C 511.308594 513.402344 510.820312 513.257812 510.320312 513.148438 C 509.816406 513.042969 509.308594 512.980469 508.796875 512.960938 C 508.285156 512.941406 507.773438 512.964844 507.265625 513.03125 C 506.757812 513.097656 506.257812 513.207031 505.769531 513.359375 C 505.277344 513.511719 504.804688 513.707031 504.347656 513.9375 C 503.890625 514.171875 503.457031 514.441406 503.046875 514.75 C 502.636719 515.058594 502.253906 515.398438 501.902344 515.769531 C 501.550781 516.140625 501.230469 516.542969 500.945312 516.96875 C 500.664062 517.394531 500.417969 517.84375 500.207031 518.3125 L 482.175781 558.878906 C 481.664062 560.046875 481.40625 561.265625 481.40625 562.542969 C 481.40625 563.816406 481.664062 565.035156 482.175781 566.203125 L 500.207031 606.769531 C 500.5625 607.566406 501.023438 608.296875 501.585938 608.960938 C 502.152344 609.625 502.800781 610.195312 503.535156 610.667969 C 504.265625 611.144531 505.046875 611.507812 505.886719 611.753906 C 506.722656 612.003906 507.574219 612.125 508.449219 612.125 C 509.078125 612.125 509.703125 612.0625 510.324219 611.9375 C 510.824219 611.832031 511.3125 611.683594 511.789062 611.492188 C 512.265625 611.300781 512.722656 611.074219 513.160156 610.804688 C 513.597656 610.535156 514.007812 610.234375 514.394531 609.894531 C 514.78125 609.554688 515.132812 609.1875 515.457031 608.789062 C 515.78125 608.390625 516.066406 607.96875 516.316406 607.519531 C 516.566406 607.070312 516.777344 606.605469 516.949219 606.121094 C 517.121094 605.640625 517.25 605.144531 517.335938 604.636719 C 517.421875 604.132812 517.464844 603.625 517.464844 603.109375 L 517.464844 598.601562 L 559.835938 598.601562 C 560.609375 598.605469 561.371094 598.507812 562.121094 598.3125 C 562.871094 598.113281 563.582031 597.828125 564.257812 597.449219 C 564.933594 597.070312 565.546875 596.613281 566.105469 596.074219 C 566.664062 595.535156 567.140625 594.9375 567.542969 594.277344 L 618.832031 509.925781 C 619.261719 509.222656 619.589844 508.46875 619.8125 507.675781 C 620.035156 506.878906 620.144531 506.070312 620.144531 505.242188 C 620.144531 504.417969 620.035156 503.605469 619.8125 502.8125 C 619.589844 502.015625 619.261719 501.265625 618.832031 500.558594 Z M 554.769531 580.570312 L 508.292969 580.570312 L 500.335938 562.542969 L 508.339844 544.511719 L 566.238281 544.511719 C 567.039062 544.511719 567.824219 544.40625 568.597656 544.199219 C 569.371094 543.988281 570.101562 543.683594 570.792969 543.277344 C 571.484375 542.875 572.109375 542.386719 572.671875 541.816406 C 573.234375 541.246094 573.710938 540.613281 574.101562 539.914062 C 574.496094 539.21875 574.789062 538.480469 574.984375 537.703125 C 575.183594 536.929688 575.273438 536.140625 575.257812 535.339844 C 575.246094 534.539062 575.128906 533.753906 574.902344 532.984375 C 574.679688 532.214844 574.363281 531.492188 573.945312 530.804688 L 547.925781 488.035156 L 577.613281 467.480469 L 600.578125 505.246094 Z M 554.769531 580.570312 "/>
<path style=" stroke:none;fill-rule:nonzero;fill:rgb(0%,0%,0%);fill-opacity:1;" d="M 459.457031 464.273438 C 459.960938 464.621094 460.496094 464.917969 461.0625 465.160156 C 461.628906 465.402344 462.210938 465.582031 462.8125 465.703125 C 463.414062 465.828125 464.023438 465.886719 464.636719 465.882812 C 465.25 465.882812 465.859375 465.816406 466.460938 465.691406 C 467.0625 465.5625 467.644531 465.378906 468.207031 465.132812 C 468.769531 464.886719 469.300781 464.585938 469.804688 464.230469 C 470.304688 463.878906 470.765625 463.476562 471.1875 463.027344 C 471.605469 462.578125 471.976562 462.09375 472.296875 461.566406 L 490.417969 431.816406 L 502.667969 451.9375 L 499.855469 453.984375 C 499.085938 454.546875 498.421875 455.210938 497.863281 455.980469 C 497.300781 456.75 496.875 457.589844 496.582031 458.492188 C 496.289062 459.398438 496.140625 460.328125 496.140625 461.28125 C 496.140625 462.230469 496.289062 463.160156 496.582031 464.066406 C 496.875 464.972656 497.300781 465.808594 497.863281 466.578125 C 498.421875 467.347656 499.085938 468.011719 499.855469 468.574219 C 500.628906 469.132812 501.464844 469.558594 502.371094 469.851562 C 503.277344 470.148438 504.207031 470.292969 505.15625 470.292969 C 505.792969 470.296875 506.421875 470.226562 507.042969 470.085938 L 549.199219 461.070312 C 550.441406 460.804688 551.578125 460.300781 552.609375 459.550781 C 553.640625 458.804688 554.472656 457.882812 555.113281 456.78125 L 576.6875 419.464844 C 576.941406 419.023438 577.160156 418.558594 577.339844 418.078125 C 577.515625 417.597656 577.652344 417.105469 577.746094 416.601562 C 577.839844 416.097656 577.890625 415.589844 577.898438 415.074219 C 577.902344 414.5625 577.867188 414.054688 577.789062 413.546875 C 577.707031 413.042969 577.585938 412.546875 577.421875 412.058594 C 577.257812 411.574219 577.050781 411.105469 576.808594 410.65625 C 576.5625 410.203125 576.28125 409.777344 575.964844 409.375 C 575.648438 408.972656 575.300781 408.597656 574.917969 408.253906 C 574.539062 407.914062 574.132812 407.605469 573.699219 407.328125 C 573.265625 407.054688 572.8125 406.820312 572.335938 406.625 C 571.863281 406.429688 571.378906 406.273438 570.878906 406.160156 C 570.378906 406.046875 569.871094 405.976562 569.359375 405.949219 C 568.847656 405.921875 568.335938 405.9375 567.828125 405.996094 C 567.320312 406.058594 566.816406 406.160156 566.328125 406.304688 C 565.835938 406.449219 565.359375 406.636719 564.898438 406.863281 C 564.4375 407.089844 564 407.355469 563.585938 407.65625 L 559.925781 410.316406 L 540.003906 377.542969 C 539.601562 376.882812 539.121094 376.285156 538.5625 375.746094 C 538.007812 375.207031 537.390625 374.75 536.71875 374.371094 C 536.042969 373.992188 535.332031 373.707031 534.585938 373.507812 C 533.835938 373.3125 533.078125 373.214844 532.304688 373.214844 L 448.53125 373.214844 C 447.757812 373.214844 446.996094 373.3125 446.25 373.511719 C 445.5 373.707031 444.789062 373.992188 444.117188 374.371094 C 443.441406 374.75 442.824219 375.210938 442.269531 375.746094 C 441.714844 376.285156 441.234375 376.882812 440.832031 377.542969 L 413.648438 422.234375 C 413.355469 422.71875 413.109375 423.230469 412.910156 423.761719 C 412.710938 424.296875 412.5625 424.84375 412.46875 425.40625 C 412.375 425.964844 412.332031 426.53125 412.34375 427.101562 C 412.355469 427.667969 412.421875 428.234375 412.542969 428.789062 C 412.660156 429.347656 412.828125 429.886719 413.050781 430.410156 C 413.273438 430.9375 413.539062 431.433594 413.855469 431.910156 C 414.171875 432.382812 414.527344 432.820312 414.929688 433.226562 C 415.328125 433.632812 415.761719 434 416.230469 434.324219 Z M 453.605469 391.246094 L 527.226562 391.246094 L 549.605469 428.039062 C 549.816406 428.390625 550.058594 428.726562 550.324219 429.039062 L 541.507812 444.265625 L 521.675781 448.496094 L 498.082031 409.730469 C 497.878906 409.398438 497.660156 409.085938 497.417969 408.785156 C 497.179688 408.484375 496.917969 408.199219 496.640625 407.933594 C 496.367188 407.664062 496.074219 407.417969 495.761719 407.1875 C 495.453125 406.957031 495.132812 406.746094 494.796875 406.558594 C 494.460938 406.371094 494.113281 406.203125 493.757812 406.058594 C 493.402344 405.914062 493.035156 405.792969 492.664062 405.695312 C 492.289062 405.601562 491.914062 405.527344 491.53125 405.476562 C 491.148438 405.429688 490.765625 405.402344 490.382812 405.402344 C 489.996094 405.402344 489.613281 405.429688 489.230469 405.476562 C 488.847656 405.527344 488.472656 405.601562 488.097656 405.695312 C 487.726562 405.792969 487.363281 405.914062 487.003906 406.058594 C 486.648438 406.203125 486.300781 406.371094 485.964844 406.558594 C 485.628906 406.746094 485.308594 406.957031 485 407.1875 C 484.691406 407.417969 484.398438 407.664062 484.121094 407.933594 C 483.84375 408.199219 483.585938 408.484375 483.34375 408.785156 C 483.101562 409.085938 482.882812 409.398438 482.683594 409.730469 L 461.828125 443.988281 L 433.4375 424.332031 Z M 453.605469 391.246094 "/>
<path style=" stroke:none;fill-rule:nonzero;fill:rgb(0%,0%,0%);fill-opacity:1;" d="M 472.386719 526.480469 L 430.625 526.480469 L 445.738281 501.632812 L 449.53125 504.335938 C 449.953125 504.644531 450.398438 504.917969 450.863281 505.148438 C 451.332031 505.382812 451.816406 505.570312 452.316406 505.71875 C 452.816406 505.867188 453.328125 505.96875 453.847656 506.03125 C 454.367188 506.089844 454.886719 506.101562 455.40625 506.070312 C 455.925781 506.039062 456.441406 505.964844 456.949219 505.84375 C 457.457031 505.722656 457.953125 505.5625 458.433594 505.355469 C 458.910156 505.148438 459.371094 504.902344 459.808594 504.617188 C 460.242188 504.332031 460.652344 504.007812 461.035156 503.652344 C 461.414062 503.296875 461.761719 502.910156 462.074219 502.492188 C 462.390625 502.074219 462.664062 501.632812 462.902344 501.167969 C 463.140625 500.703125 463.335938 500.21875 463.488281 499.722656 C 463.640625 499.222656 463.75 498.714844 463.816406 498.195312 C 463.882812 497.675781 463.902344 497.15625 463.875 496.636719 C 463.851562 496.113281 463.78125 495.597656 463.664062 495.089844 C 463.550781 494.582031 463.394531 494.085938 463.191406 493.601562 C 462.992188 493.121094 462.75 492.660156 462.46875 492.21875 L 439.570312 454.175781 C 438.914062 453.082031 438.066406 452.167969 437.019531 451.4375 C 435.976562 450.707031 434.828125 450.222656 433.574219 449.984375 L 390.003906 441.480469 C 389.5 441.382812 388.992188 441.332031 388.480469 441.320312 C 387.96875 441.3125 387.460938 441.34375 386.953125 441.421875 C 386.449219 441.496094 385.953125 441.617188 385.464844 441.777344 C 384.980469 441.9375 384.511719 442.136719 384.058594 442.378906 C 383.609375 442.621094 383.179688 442.898438 382.777344 443.210938 C 382.371094 443.523438 381.996094 443.871094 381.652344 444.246094 C 381.304688 444.625 380.992188 445.027344 380.71875 445.460938 C 380.441406 445.890625 380.203125 446.339844 380.003906 446.8125 C 379.800781 447.285156 379.644531 447.769531 379.527344 448.265625 C 379.410156 448.765625 379.335938 449.269531 379.300781 449.78125 C 379.269531 450.289062 379.28125 450.800781 379.339844 451.308594 C 379.394531 451.816406 379.492188 452.320312 379.632812 452.8125 C 379.773438 453.304688 379.953125 453.78125 380.175781 454.242188 C 380.398438 454.703125 380.65625 455.140625 380.953125 455.558594 C 381.25 455.976562 381.578125 456.363281 381.941406 456.726562 C 382.304688 457.085938 382.695312 457.414062 383.113281 457.710938 L 386.585938 460.132812 L 362.035156 500.515625 C 361.609375 501.21875 361.28125 501.972656 361.058594 502.765625 C 360.835938 503.5625 360.726562 504.371094 360.726562 505.199219 C 360.726562 506.023438 360.835938 506.835938 361.058594 507.628906 C 361.28125 508.425781 361.609375 509.175781 362.035156 509.882812 L 413.324219 594.230469 C 413.722656 594.894531 414.199219 595.496094 414.753906 596.035156 C 415.304688 596.574219 415.917969 597.039062 416.589844 597.421875 C 417.261719 597.804688 417.972656 598.09375 418.71875 598.296875 C 419.464844 598.496094 420.226562 598.597656 420.996094 598.601562 L 472.386719 598.601562 C 472.976562 598.601562 473.5625 598.546875 474.144531 598.429688 C 474.726562 598.3125 475.289062 598.144531 475.835938 597.917969 C 476.382812 597.691406 476.902344 597.414062 477.394531 597.082031 C 477.886719 596.753906 478.34375 596.382812 478.761719 595.960938 C 479.179688 595.542969 479.554688 595.089844 479.882812 594.597656 C 480.210938 594.105469 480.488281 593.585938 480.714844 593.039062 C 480.941406 592.492188 481.113281 591.925781 481.226562 591.347656 C 481.34375 590.765625 481.402344 590.179688 481.402344 589.585938 L 481.402344 535.496094 C 481.402344 534.902344 481.34375 534.316406 481.226562 533.734375 C 481.113281 533.15625 480.941406 532.589844 480.714844 532.042969 C 480.488281 531.496094 480.210938 530.976562 479.882812 530.484375 C 479.554688 529.992188 479.179688 529.539062 478.761719 529.121094 C 478.34375 528.699219 477.886719 528.328125 477.394531 528 C 476.902344 527.667969 476.382812 527.390625 475.835938 527.164062 C 475.289062 526.9375 474.726562 526.769531 474.144531 526.652344 C 473.5625 526.535156 472.976562 526.480469 472.386719 526.480469 Z M 463.371094 580.570312 L 426.066406 580.570312 L 380.257812 505.246094 L 405.949219 463 L 426.15625 466.941406 L 435.925781 483.167969 C 435.710938 483.457031 435.511719 483.757812 435.332031 484.070312 L 406.890625 530.804688 C 406.472656 531.492188 406.152344 532.214844 405.929688 532.984375 C 405.707031 533.753906 405.589844 534.539062 405.574219 535.339844 C 405.5625 536.140625 405.652344 536.929688 405.847656 537.703125 C 406.046875 538.480469 406.339844 539.21875 406.730469 539.914062 C 407.125 540.613281 407.601562 541.246094 408.164062 541.816406 C 408.722656 542.386719 409.351562 542.875 410.042969 543.277344 C 410.734375 543.683594 411.464844 543.988281 412.238281 544.199219 C 413.011719 544.40625 413.796875 544.511719 414.597656 544.511719 L 463.371094 544.511719 Z M 463.371094 580.570312 "/>
<g clip-path="url(#clip1)" clip-rule="nonzero">
<path style=" stroke:none;fill-rule:nonzero;fill:rgb(0%,0%,0%);fill-opacity:1;" d="M 508.449219 329.21875 L 508.449219 138.8125 C 508.445312 137.929688 508.398438 137.046875 508.3125 136.164062 C 508.222656 135.285156 508.089844 134.410156 507.914062 133.542969 C 507.742188 132.675781 507.523438 131.816406 507.265625 130.972656 C 507.007812 130.125 506.707031 129.292969 506.367188 128.476562 C 506.027344 127.660156 505.648438 126.859375 505.230469 126.078125 C 504.8125 125.300781 504.359375 124.542969 503.863281 123.804688 C 503.371094 123.070312 502.847656 122.359375 502.285156 121.675781 C 501.722656 120.992188 501.128906 120.339844 500.503906 119.710938 C 499.875 119.085938 499.222656 118.492188 498.539062 117.929688 C 497.855469 117.371094 497.144531 116.84375 496.410156 116.351562 C 495.671875 115.859375 494.914062 115.402344 494.136719 114.984375 C 493.355469 114.566406 492.554688 114.1875 491.738281 113.847656 C 490.921875 113.507812 490.089844 113.207031 489.242188 112.949219 C 488.398438 112.691406 487.539062 112.472656 486.671875 112.300781 C 485.804688 112.125 484.929688 111.992188 484.050781 111.90625 C 483.167969 111.816406 482.285156 111.769531 481.402344 111.765625 L 156.84375 111.765625 C 155.367188 111.765625 153.894531 111.839844 152.425781 111.984375 C 150.957031 112.128906 149.5 112.34375 148.050781 112.632812 C 146.601562 112.921875 145.171875 113.28125 143.757812 113.707031 C 142.347656 114.136719 140.957031 114.632812 139.59375 115.199219 C 138.230469 115.761719 136.898438 116.394531 135.59375 117.089844 C 134.292969 117.785156 133.027344 118.542969 131.800781 119.363281 C 130.574219 120.183594 129.390625 121.0625 128.246094 122 C 127.105469 122.9375 126.015625 123.925781 124.96875 124.96875 C 123.925781 126.015625 122.9375 127.105469 122 128.246094 C 121.0625 129.390625 120.183594 130.574219 119.363281 131.800781 C 118.542969 133.027344 117.785156 134.292969 117.089844 135.59375 C 116.394531 136.898438 115.761719 138.230469 115.199219 139.59375 C 114.632812 140.957031 114.136719 142.347656 113.707031 143.757812 C 113.28125 145.171875 112.921875 146.601562 112.632812 148.050781 C 112.34375 149.5 112.128906 150.957031 111.984375 152.425781 C 111.839844 153.894531 111.765625 155.367188 111.765625 156.84375 L 111.765625 607.617188 C 111.765625 609.09375 111.839844 610.566406 111.984375 612.035156 C 112.128906 613.507812 112.34375 614.964844 112.632812 616.414062 C 112.921875 617.859375 113.28125 619.289062 113.707031 620.703125 C 114.136719 622.117188 114.632812 623.503906 115.199219 624.867188 C 115.761719 626.234375 116.394531 627.566406 117.089844 628.867188 C 117.785156 630.167969 118.542969 631.433594 119.363281 632.660156 C 120.183594 633.890625 121.0625 635.074219 122 636.214844 C 122.9375 637.355469 123.925781 638.449219 124.96875 639.492188 C 126.015625 640.535156 127.105469 641.527344 128.246094 642.464844 C 129.390625 643.398438 130.574219 644.277344 131.800781 645.097656 C 133.027344 645.917969 134.292969 646.675781 135.59375 647.375 C 136.898438 648.070312 138.230469 648.699219 139.59375 649.265625 C 140.957031 649.828125 142.347656 650.328125 143.757812 650.753906 C 145.171875 651.183594 146.601562 651.542969 148.050781 651.828125 C 149.5 652.117188 150.957031 652.335938 152.425781 652.480469 C 153.894531 652.625 155.367188 652.695312 156.84375 652.695312 L 490.417969 652.695312 C 492.972656 652.683594 495.523438 652.613281 498.078125 652.484375 C 500.628906 652.351562 503.175781 652.160156 505.714844 651.910156 C 508.257812 651.660156 510.792969 651.347656 513.320312 650.976562 C 515.847656 650.605469 518.367188 650.175781 520.875 649.683594 C 523.382812 649.195312 525.875 648.644531 528.355469 648.039062 C 530.839844 647.429688 533.304688 646.765625 535.753906 646.039062 C 538.203125 645.316406 540.636719 644.535156 543.046875 643.695312 C 545.460938 642.855469 547.851562 641.960938 550.222656 641.007812 C 552.59375 640.058594 554.941406 639.050781 557.265625 637.988281 C 559.585938 636.925781 561.882812 635.808594 564.15625 634.636719 C 566.425781 633.464844 568.667969 632.242188 570.878906 630.964844 C 573.089844 629.6875 575.273438 628.359375 577.421875 626.976562 C 579.574219 625.597656 581.6875 624.167969 583.769531 622.6875 C 585.851562 621.207031 587.898438 619.679688 589.910156 618.101562 C 591.917969 616.523438 593.890625 614.902344 595.824219 613.230469 C 597.757812 611.5625 599.652344 609.847656 601.503906 608.089844 C 603.355469 606.328125 605.164062 604.527344 606.933594 602.683594 C 608.699219 600.835938 610.421875 598.953125 612.101562 597.027344 C 613.78125 595.101562 615.410156 593.136719 616.996094 591.132812 C 618.582031 589.128906 620.121094 587.089844 621.609375 585.015625 C 623.097656 582.9375 624.539062 580.828125 625.925781 578.683594 C 627.316406 576.539062 628.65625 574.367188 629.941406 572.160156 C 631.230469 569.953125 632.460938 567.714844 633.644531 565.449219 C 634.824219 563.183594 635.953125 560.894531 637.023438 558.574219 C 638.097656 556.257812 639.117188 553.914062 640.078125 551.546875 C 641.039062 549.179688 641.945312 546.792969 642.796875 544.382812 C 643.644531 541.972656 644.4375 539.546875 645.171875 537.097656 C 645.90625 534.652344 646.585938 532.191406 647.203125 529.710938 C 647.820312 527.234375 648.382812 524.742188 648.882812 522.234375 C 649.382812 519.730469 649.824219 517.214844 650.207031 514.6875 C 650.589844 512.164062 650.910156 509.628906 651.171875 507.089844 C 651.4375 504.546875 651.636719 502 651.78125 499.449219 C 651.921875 496.898438 652.003906 494.347656 652.027344 491.792969 C 652.046875 489.238281 652.007812 486.683594 651.910156 484.132812 C 651.8125 481.578125 651.652344 479.027344 651.433594 476.484375 C 651.210938 473.9375 650.933594 471.398438 650.59375 468.867188 C 650.253906 466.335938 649.855469 463.8125 649.398438 461.300781 C 648.9375 458.785156 648.421875 456.285156 647.84375 453.796875 C 647.269531 451.308594 646.632812 448.835938 645.941406 446.375 C 645.246094 443.917969 644.496094 441.476562 643.6875 439.050781 C 642.878906 436.628906 642.011719 434.226562 641.089844 431.84375 C 640.167969 429.460938 639.191406 427.101562 638.15625 424.765625 C 637.125 422.429688 636.035156 420.117188 634.894531 417.832031 C 633.75 415.546875 632.554688 413.292969 631.304688 411.0625 C 630.054688 408.835938 628.753906 406.636719 627.402344 404.46875 C 626.050781 402.304688 624.644531 400.167969 623.191406 398.070312 C 621.738281 395.96875 620.234375 393.902344 618.683594 391.875 C 617.132812 389.84375 615.535156 387.851562 613.890625 385.898438 C 612.242188 383.941406 610.550781 382.027344 608.816406 380.15625 C 607.082031 378.28125 605.300781 376.449219 603.480469 374.65625 C 601.65625 372.867188 599.792969 371.121094 597.886719 369.417969 C 595.984375 367.714844 594.039062 366.058594 592.054688 364.449219 C 590.074219 362.839844 588.054688 361.277344 585.996094 359.761719 C 583.941406 358.246094 581.847656 356.78125 579.722656 355.363281 C 577.597656 353.945312 575.4375 352.582031 573.246094 351.265625 C 571.054688 349.953125 568.835938 348.691406 566.585938 347.480469 C 564.335938 346.273438 562.058594 345.117188 559.753906 344.015625 C 557.449219 342.910156 555.117188 341.863281 552.765625 340.871094 C 550.410156 339.878906 548.035156 338.945312 545.636719 338.066406 C 543.238281 337.183594 540.820312 336.363281 538.382812 335.597656 C 535.945312 334.832031 533.492188 334.125 531.019531 333.472656 C 528.550781 332.824219 526.0625 332.234375 523.566406 331.703125 C 521.066406 331.167969 518.558594 330.695312 516.035156 330.28125 C 513.515625 329.867188 510.984375 329.515625 508.449219 329.21875 Z M 183.890625 129.796875 L 481.402344 129.796875 C 481.992188 129.796875 482.578125 129.855469 483.160156 129.972656 C 483.742188 130.085938 484.304688 130.257812 484.851562 130.484375 C 485.398438 130.710938 485.917969 130.988281 486.410156 131.316406 C 486.902344 131.644531 487.359375 132.019531 487.777344 132.4375 C 488.195312 132.855469 488.570312 133.3125 488.898438 133.804688 C 489.226562 134.296875 489.503906 134.816406 489.730469 135.363281 C 489.957031 135.910156 490.128906 136.472656 490.242188 137.054688 C 490.359375 137.636719 490.417969 138.222656 490.417969 138.8125 L 490.417969 328.136719 C 486.980469 328.128906 483.546875 328.234375 480.117188 328.445312 C 476.683594 328.65625 473.265625 328.972656 469.855469 329.402344 C 466.445312 329.832031 463.050781 330.367188 459.675781 331.015625 C 456.296875 331.660156 452.945312 332.410156 449.617188 333.269531 C 446.289062 334.128906 442.992188 335.089844 439.726562 336.160156 C 436.457031 337.226562 433.226562 338.398438 430.035156 339.671875 C 426.84375 340.945312 423.695312 342.320312 420.589844 343.796875 C 417.484375 345.269531 414.429688 346.84375 411.425781 348.511719 C 408.421875 350.179688 405.472656 351.945312 402.582031 353.800781 C 399.6875 355.65625 396.859375 357.605469 394.089844 359.640625 C 391.320312 361.679688 388.621094 363.800781 385.988281 366.011719 C 383.355469 368.21875 380.792969 370.511719 378.304688 372.882812 C 375.820312 375.253906 373.410156 377.703125 371.078125 380.230469 C 368.746094 382.753906 366.496094 385.351562 364.332031 388.019531 C 362.167969 390.691406 360.085938 393.425781 358.09375 396.226562 C 356.105469 399.027344 354.203125 401.890625 352.394531 404.8125 C 350.582031 407.734375 348.867188 410.710938 347.25 413.742188 C 345.628906 416.773438 344.105469 419.855469 342.683594 422.980469 C 341.257812 426.109375 339.9375 429.28125 338.714844 432.492188 C 337.492188 435.707031 336.375 438.953125 335.359375 442.238281 C 334.34375 445.523438 333.433594 448.835938 332.628906 452.175781 C 331.828125 455.519531 331.128906 458.882812 330.539062 462.269531 C 329.949219 465.65625 329.46875 469.054688 329.09375 472.472656 C 328.722656 475.890625 328.457031 479.316406 328.300781 482.75 C 328.148438 486.183594 328.101562 489.617188 328.164062 493.054688 C 328.230469 496.492188 328.402344 499.921875 328.683594 503.347656 C 328.964844 506.773438 329.355469 510.1875 329.855469 513.585938 C 330.355469 516.988281 330.960938 520.367188 331.675781 523.730469 C 332.390625 527.09375 333.214844 530.429688 334.140625 533.738281 C 335.066406 537.046875 336.101562 540.324219 337.234375 543.570312 C 338.371094 546.8125 339.609375 550.019531 340.949219 553.183594 C 342.289062 556.347656 343.730469 559.46875 345.269531 562.542969 L 183.890625 562.542969 Z M 129.796875 156.84375 C 129.800781 155.960938 129.847656 155.078125 129.933594 154.195312 C 130.023438 153.316406 130.15625 152.441406 130.332031 151.574219 C 130.503906 150.707031 130.722656 149.847656 130.980469 149.003906 C 131.238281 148.15625 131.539062 147.324219 131.878906 146.507812 C 132.21875 145.6875 132.597656 144.890625 133.015625 144.109375 C 133.433594 143.332031 133.886719 142.574219 134.378906 141.835938 C 134.875 141.101562 135.398438 140.390625 135.960938 139.707031 C 136.523438 139.023438 137.117188 138.367188 137.742188 137.742188 C 138.367188 137.117188 139.023438 136.523438 139.707031 135.960938 C 140.390625 135.398438 141.101562 134.875 141.835938 134.378906 C 142.574219 133.886719 143.332031 133.433594 144.109375 133.015625 C 144.890625 132.597656 145.6875 132.21875 146.507812 131.878906 C 147.324219 131.539062 148.15625 131.238281 149.003906 130.980469 C 149.847656 130.722656 150.707031 130.503906 151.574219 130.332031 C 152.441406 130.15625 153.316406 130.023438 154.195312 129.933594 C 155.078125 129.847656 155.960938 129.800781 156.84375 129.796875 L 165.859375 129.796875 L 165.859375 562.542969 L 156.84375 562.542969 C 154.414062 562.546875 151.996094 562.753906 149.601562 563.15625 C 147.203125 563.558594 144.851562 564.15625 142.554688 564.945312 C 140.253906 565.734375 138.03125 566.707031 135.894531 567.863281 C 133.753906 569.015625 131.722656 570.339844 129.796875 571.828125 Z M 156.84375 634.664062 C 155.957031 634.664062 155.074219 634.621094 154.191406 634.535156 C 153.3125 634.449219 152.4375 634.316406 151.566406 634.144531 C 150.699219 633.972656 149.839844 633.757812 148.992188 633.5 C 148.144531 633.242188 147.3125 632.945312 146.492188 632.605469 C 145.675781 632.265625 144.875 631.890625 144.09375 631.472656 C 143.3125 631.054688 142.554688 630.597656 141.816406 630.105469 C 141.082031 629.613281 140.371094 629.085938 139.6875 628.527344 C 139 627.964844 138.347656 627.371094 137.71875 626.742188 C 137.09375 626.117188 136.5 625.460938 135.9375 624.777344 C 135.375 624.089844 134.847656 623.382812 134.355469 622.644531 C 133.863281 621.90625 133.410156 621.148438 132.992188 620.367188 C 132.574219 619.585938 132.195312 618.785156 131.855469 617.96875 C 131.519531 617.148438 131.21875 616.316406 130.960938 615.46875 C 130.707031 614.621094 130.492188 613.765625 130.316406 612.894531 C 130.144531 612.027344 130.015625 611.152344 129.929688 610.269531 C 129.839844 609.386719 129.796875 608.503906 129.796875 607.617188 C 129.796875 606.734375 129.839844 605.847656 129.929688 604.96875 C 130.015625 604.085938 130.144531 603.210938 130.316406 602.34375 C 130.492188 601.472656 130.707031 600.613281 130.960938 599.765625 C 131.21875 598.917969 131.519531 598.085938 131.855469 597.269531 C 132.195312 596.449219 132.574219 595.648438 132.992188 594.867188 C 133.410156 594.085938 133.863281 593.328125 134.355469 592.59375 C 134.847656 591.855469 135.375 591.144531 135.9375 590.460938 C 136.5 589.777344 137.09375 589.121094 137.71875 588.492188 C 138.347656 587.867188 139 587.273438 139.6875 586.710938 C 140.371094 586.148438 141.082031 585.621094 141.816406 585.128906 C 142.554688 584.636719 143.3125 584.183594 144.09375 583.765625 C 144.875 583.347656 145.675781 582.96875 146.492188 582.628906 C 147.3125 582.292969 148.144531 581.992188 148.992188 581.738281 C 149.839844 581.480469 150.699219 581.265625 151.566406 581.089844 C 152.4375 580.917969 153.3125 580.789062 154.191406 580.703125 C 155.074219 580.617188 155.957031 580.570312 156.84375 580.570312 L 355.546875 580.570312 C 359.378906 586.265625 363.558594 591.699219 368.078125 596.867188 C 372.597656 602.039062 377.421875 606.902344 382.554688 611.464844 C 387.6875 616.027344 393.082031 620.25 398.746094 624.128906 C 404.410156 628.011719 410.292969 631.523438 416.398438 634.664062 Z M 490.417969 634.664062 C 488.054688 634.664062 485.695312 634.605469 483.339844 634.492188 C 480.980469 634.375 478.628906 634.203125 476.277344 633.96875 C 473.929688 633.738281 471.585938 633.449219 469.25 633.105469 C 466.917969 632.757812 464.589844 632.355469 462.277344 631.894531 C 459.960938 631.433594 457.65625 630.914062 455.367188 630.34375 C 453.078125 629.769531 450.804688 629.140625 448.542969 628.453125 C 446.285156 627.769531 444.042969 627.027344 441.820312 626.234375 C 439.597656 625.4375 437.398438 624.589844 435.214844 623.683594 C 433.035156 622.78125 430.878906 621.824219 428.742188 620.816406 C 426.609375 619.804688 424.5 618.746094 422.417969 617.632812 C 420.335938 616.519531 418.285156 615.355469 416.257812 614.140625 C 414.234375 612.929688 412.242188 611.667969 410.277344 610.355469 C 408.316406 609.042969 406.386719 607.683594 404.488281 606.277344 C 402.59375 604.871094 400.730469 603.417969 398.90625 601.921875 C 397.082031 600.425781 395.296875 598.882812 393.546875 597.296875 C 391.796875 595.710938 390.085938 594.085938 388.417969 592.414062 C 386.75 590.746094 385.121094 589.039062 383.535156 587.289062 C 381.953125 585.539062 380.410156 583.75 378.914062 581.925781 C 377.414062 580.101562 375.960938 578.242188 374.554688 576.34375 C 373.148438 574.449219 371.792969 572.519531 370.480469 570.558594 C 369.167969 568.59375 367.90625 566.601562 366.691406 564.574219 C 365.476562 562.550781 364.316406 560.496094 363.203125 558.414062 C 362.089844 556.332031 361.027344 554.226562 360.019531 552.089844 C 359.007812 549.957031 358.054688 547.800781 357.148438 545.617188 C 356.246094 543.4375 355.398438 541.234375 354.601562 539.011719 C 353.804688 536.789062 353.066406 534.550781 352.378906 532.289062 C 351.695312 530.03125 351.066406 527.757812 350.492188 525.464844 C 349.917969 523.175781 349.402344 520.875 348.941406 518.558594 C 348.480469 516.242188 348.078125 513.917969 347.730469 511.582031 C 347.382812 509.246094 347.09375 506.90625 346.863281 504.554688 C 346.632812 502.207031 346.460938 499.851562 346.34375 497.496094 C 346.226562 495.136719 346.167969 492.777344 346.167969 490.417969 C 346.167969 488.054688 346.226562 485.695312 346.34375 483.339844 C 346.460938 480.980469 346.632812 478.628906 346.863281 476.277344 C 347.09375 473.929688 347.382812 471.585938 347.730469 469.25 C 348.078125 466.917969 348.480469 464.589844 348.941406 462.277344 C 349.402344 459.960938 349.917969 457.65625 350.492188 455.367188 C 351.066406 453.078125 351.695312 450.804688 352.378906 448.542969 C 353.066406 446.285156 353.804688 444.042969 354.601562 441.820312 C 355.398438 439.597656 356.246094 437.398438 357.148438 435.214844 C 358.054688 433.035156 359.007812 430.878906 360.019531 428.742188 C 361.027344 426.609375 362.089844 424.5 363.203125 422.417969 C 364.316406 420.335938 365.476562 418.285156 366.691406 416.257812 C 367.90625 414.234375 369.167969 412.242188 370.480469 410.277344 C 371.792969 408.316406 373.148438 406.386719 374.554688 404.488281 C 375.960938 402.59375 377.414062 400.730469 378.914062 398.90625 C 380.410156 397.082031 381.953125 395.296875 383.535156 393.546875 C 385.121094 391.796875 386.75 390.085938 388.417969 388.417969 C 390.085938 386.75 391.796875 385.121094 393.546875 383.535156 C 395.296875 381.953125 397.082031 380.410156 398.90625 378.914062 C 400.730469 377.414062 402.59375 375.960938 404.488281 374.554688 C 406.386719 373.148438 408.316406 371.792969 410.277344 370.480469 C 412.242188 369.167969 414.234375 367.90625 416.257812 366.691406 C 418.285156 365.476562 420.335938 364.316406 422.417969 363.203125 C 424.5 362.089844 426.609375 361.027344 428.742188 360.019531 C 430.878906 359.007812 433.035156 358.054688 435.214844 357.148438 C 437.398438 356.246094 439.597656 355.398438 441.820312 354.601562 C 444.042969 353.804688 446.285156 353.066406 448.542969 352.378906 C 450.804688 351.695312 453.078125 351.066406 455.367188 350.492188 C 457.65625 349.917969 459.960938 349.402344 462.277344 348.941406 C 464.589844 348.480469 466.917969 348.078125 469.25 347.730469 C 471.585938 347.382812 473.929688 347.09375 476.277344 346.863281 C 478.628906 346.632812 480.980469 346.460938 483.339844 346.34375 C 485.695312 346.226562 488.054688 346.167969 490.417969 346.167969 C 492.777344 346.167969 495.136719 346.226562 497.496094 346.34375 C 499.851562 346.460938 502.207031 346.632812 504.554688 346.863281 C 506.90625 347.09375 509.246094 347.382812 511.582031 347.730469 C 513.917969 348.078125 516.242188 348.480469 518.558594 348.941406 C 520.875 349.402344 523.175781 349.917969 525.464844 350.492188 C 527.757812 351.066406 530.03125 351.695312 532.289062 352.378906 C 534.550781 353.066406 536.789062 353.804688 539.011719 354.601562 C 541.234375 355.398438 543.4375 356.246094 545.617188 357.148438 C 547.800781 358.054688 549.957031 359.007812 552.089844 360.019531 C 554.226562 361.027344 556.332031 362.089844 558.414062 363.203125 C 560.496094 364.316406 562.550781 365.476562 564.574219 366.691406 C 566.601562 367.90625 568.59375 369.167969 570.558594 370.480469 C 572.519531 371.792969 574.449219 373.148438 576.34375 374.554688 C 578.242188 375.960938 580.101562 377.414062 581.925781 378.914062 C 583.75 380.410156 585.539062 381.953125 587.289062 383.535156 C 589.039062 385.121094 590.746094 386.75 592.414062 388.417969 C 594.085938 390.085938 595.710938 391.796875 597.296875 393.546875 C 598.882812 395.296875 600.425781 397.082031 601.921875 398.90625 C 603.417969 400.730469 604.871094 402.59375 606.277344 404.488281 C 607.683594 406.386719 609.042969 408.316406 610.355469 410.277344 C 611.667969 412.242188 612.929688 414.234375 614.140625 416.257812 C 615.355469 418.285156 616.519531 420.335938 617.632812 422.417969 C 618.746094 424.5 619.804688 426.609375 620.816406 428.742188 C 621.824219 430.878906 622.78125 433.035156 623.683594 435.214844 C 624.589844 437.398438 625.4375 439.597656 626.234375 441.820312 C 627.027344 444.042969 627.769531 446.285156 628.453125 448.542969 C 629.140625 450.804688 629.769531 453.078125 630.34375 455.367188 C 630.914062 457.65625 631.433594 459.960938 631.894531 462.277344 C 632.355469 464.589844 632.757812 466.917969 633.105469 469.25 C 633.449219 471.585938 633.738281 473.929688 633.96875 476.277344 C 634.203125 478.628906 634.375 480.980469 634.492188 483.339844 C 634.605469 485.695312 634.664062 488.054688 634.664062 490.417969 C 634.660156 492.777344 634.601562 495.136719 634.480469 497.492188 C 634.363281 499.847656 634.1875 502.203125 633.953125 504.550781 C 633.71875 506.898438 633.429688 509.238281 633.078125 511.574219 C 632.730469 513.90625 632.324219 516.230469 631.863281 518.546875 C 631.398438 520.859375 630.878906 523.160156 630.304688 525.449219 C 629.730469 527.738281 629.097656 530.011719 628.410156 532.269531 C 627.722656 534.527344 626.984375 536.765625 626.1875 538.988281 C 625.390625 541.207031 624.539062 543.410156 623.632812 545.589844 C 622.730469 547.769531 621.773438 549.925781 620.761719 552.058594 C 619.75 554.191406 618.691406 556.296875 617.578125 558.378906 C 616.464844 560.457031 615.300781 562.511719 614.085938 564.535156 C 612.871094 566.558594 611.609375 568.550781 610.296875 570.511719 C 608.984375 572.472656 607.625 574.402344 606.21875 576.296875 C 604.8125 578.191406 603.363281 580.050781 601.863281 581.875 C 600.367188 583.699219 598.824219 585.488281 597.242188 587.234375 C 595.65625 588.984375 594.027344 590.691406 592.359375 592.359375 C 590.691406 594.027344 588.984375 595.65625 587.234375 597.242188 C 585.488281 598.824219 583.699219 600.367188 581.875 601.863281 C 580.050781 603.363281 578.191406 604.8125 576.296875 606.21875 C 574.402344 607.625 572.472656 608.984375 570.511719 610.296875 C 568.550781 611.609375 566.558594 612.871094 564.535156 614.085938 C 562.511719 615.300781 560.457031 616.464844 558.378906 617.578125 C 556.296875 618.691406 554.191406 619.753906 552.058594 620.761719 C 549.925781 621.773438 547.769531 622.730469 545.589844 623.632812 C 543.410156 624.539062 541.207031 625.390625 538.988281 626.1875 C 536.765625 626.984375 534.527344 627.722656 532.269531 628.410156 C 530.011719 629.097656 527.738281 629.730469 525.449219 630.304688 C 523.160156 630.878906 520.859375 631.398438 518.546875 631.863281 C 516.230469 632.324219 513.90625 632.730469 511.574219 633.078125 C 509.238281 633.429688 506.898438 633.71875 504.550781 633.953125 C 502.203125 634.1875 499.847656 634.363281 497.492188 634.480469 C 495.136719 634.601562 492.777344 634.660156 490.417969 634.664062 Z M 490.417969 634.664062 "/>
</g>
<path style=" stroke:none;fill-rule:nonzero;fill:rgb(0%,0%,0%);fill-opacity:1;" d="M 210.9375 292.078125 L 463.371094 292.078125 C 463.960938 292.078125 464.550781 292.019531 465.128906 291.902344 C 465.710938 291.789062 466.273438 291.617188 466.820312 291.390625 C 467.367188 291.164062 467.886719 290.886719 468.378906 290.558594 C 468.871094 290.226562 469.328125 289.855469 469.746094 289.4375 C 470.164062 289.015625 470.539062 288.5625 470.867188 288.070312 C 471.195312 287.578125 471.472656 287.058594 471.699219 286.511719 C 471.925781 285.964844 472.097656 285.402344 472.214844 284.820312 C 472.328125 284.238281 472.386719 283.652344 472.386719 283.0625 L 472.386719 156.84375 C 472.386719 156.253906 472.328125 155.667969 472.214844 155.085938 C 472.097656 154.503906 471.925781 153.941406 471.699219 153.394531 C 471.472656 152.847656 471.195312 152.328125 470.867188 151.835938 C 470.539062 151.34375 470.164062 150.886719 469.746094 150.46875 C 469.328125 150.050781 468.871094 149.675781 468.378906 149.347656 C 467.886719 149.019531 467.367188 148.742188 466.820312 148.515625 C 466.273438 148.289062 465.710938 148.117188 465.128906 148.003906 C 464.550781 147.886719 463.960938 147.828125 463.371094 147.828125 L 210.9375 147.828125 C 210.34375 147.828125 209.757812 147.886719 209.179688 148.003906 C 208.597656 148.117188 208.035156 148.289062 207.488281 148.515625 C 206.941406 148.742188 206.421875 149.019531 205.929688 149.347656 C 205.4375 149.675781 204.980469 150.050781 204.5625 150.46875 C 204.144531 150.886719 203.769531 151.34375 203.441406 151.835938 C 203.113281 152.328125 202.835938 152.847656 202.609375 153.394531 C 202.382812 153.941406 202.210938 154.503906 202.09375 155.085938 C 201.980469 155.667969 201.921875 156.253906 201.921875 156.84375 L 201.921875 283.0625 C 201.921875 283.652344 201.980469 284.238281 202.09375 284.820312 C 202.210938 285.402344 202.382812 285.964844 202.609375 286.511719 C 202.835938 287.058594 203.113281 287.578125 203.441406 288.070312 C 203.769531 288.5625 204.144531 289.015625 204.5625 289.4375 C 204.980469 289.855469 205.4375 290.226562 205.929688 290.558594 C 206.421875 290.886719 206.941406 291.164062 207.488281 291.390625 C 208.035156 291.617188 208.597656 291.789062 209.179688 291.902344 C 209.757812 292.019531 210.34375 292.078125 210.9375 292.078125 Z M 219.953125 165.859375 L 454.355469 165.859375 L 454.355469 274.046875 L 219.953125 274.046875 Z M 219.953125 165.859375 "/>
</g>
</svg>
